#!OML:ASF F:\VICON\USERDATA\INSTALL\rory3\rory3.ASF
:FULLY-SPECIFIED
:DEGREES
392
root 0.729664 17.8067 6.70843 5.76002 -4.98186 -0.619659
lowerback 7.24394 -0.51572 -2.71416
upperback -1.78629 -0.814494 2.32723
thorax -5.86579 -0.261291 4.06485
lowerneck -18.6089 -6.50143 -10.8998
upperneck 20.388 -7.63319 7.23094
head 10.3048 -3.556 3.24213
rclavicle 8.94531e-015 -2.66371e-014
rhumerus -33.1671 -11.8708 -74.1664
rradius 41.8419
rwrist 5.71238
rhand -11.4853 10.9017
rfingers 7.12502
rthumb 14.5529 -18.5678
lclavicle 8.94531e-015 -2.66371e-014
lhumerus -38.923 10.4575 72.5553
lradius 44.297
lwrist -4.59004
lhand -19.2061 19.0207
lfingers 7.12502
lthumb 7.10617 48.8814
rfemur -9.20076 3.9289 21.7773
rtibia 19.6121
rfoot -10.4151 -8.18268
rtoes 5.21327
lfemur -9.34295 -3.42873 -19.5077
ltibia 21.0559
lfoot -9.63713 10.8299
ltoes -2.5043
393
root 0.730157 17.807 6.72244 5.75776 -4.92189 -0.66446
lowerback 7.24496 -0.503359 -2.65866
upperback -1.82798 -0.790027 2.37231
thorax -5.91266 -0.24867 4.0788
lowerneck -18.8032 -6.47444 -10.8017
upperneck 20.682 -7.57441 7.05092
head 10.4291 -3.53869 3.16952
rclavicle -1.94809e-014 3.53837e-014
rhumerus -33.5952 -11.7473 -74.0483
rradius 41.7223
rwrist 5.88326
rhand -11.474 11.4723
rfingers 7.12502
rthumb 14.5639 -17.9965
lclavicle -1.94809e-014 3.53837e-014
lhumerus -38.8934 10.6003 72.6523
lradius 44.0158
lwrist -5.04188
lhand -18.8823 21.1368
lfingers 7.12502
lthumb 7.41879 50.9867
rfemur -9.08439 3.82475 21.861
rtibia 19.4726
rfoot -9.08195 -6.95173
rtoes 8.19317
lfemur -9.19651 -3.34586 -19.4823
ltibia 20.9593
lfoot -9.53396 10.7813
ltoes -3.17583
394
root 0.730584 17.8094 6.73603 5.75521 -4.8523 -0.692881
lowerback 7.26988 -0.492818 -2.61297
upperback -1.8697 -0.769818 2.40759
thorax -5.97286 -0.237708 4.08904
lowerneck -19.0322 -6.47021 -10.6956
upperneck 20.8964 -7.54782 6.89722
head 10.5357 -3.53152 3.09836
rclavicle 2.98177e-015 -2.78299e-015
rhumerus -34.0828 -11.6106 -73.9834
rradius 41.8022
rwrist 5.7853
rhand -11.139 11.6934
rfingers 7.12502
rthumb 14.8866 -17.7518
lclavicle 2.98177e-015 -2.78299e-015
lhumerus -39.1861 10.5576 72.8059
lradius 44.4349
lwrist -4.99717
lhand -18.4288 22.3021
lfingers 7.12502
lthumb 7.8565 52.1361
rfemur -8.95911 3.73578 21.9519
rtibia 19.3927
rfoot -8.28004 -6.53074
rtoes 13.7633
lfemur -9.09167 -3.48456 -19.4518
ltibia 20.8413
lfoot -9.55114 10.8144
ltoes -3.08306
395
root 0.733762 17.8104 6.74609 5.73803 -4.77635 -0.659994
lowerback 7.25108 -0.478596 -2.55778
upperback -1.86074 -0.747059 2.37529
thorax -5.95553 -0.22962 4.02028
lowerneck -18.9834 -6.47066 -10.6026
upperneck 20.7287 -7.57804 6.91957
head 10.4654 -3.53567 3.08597
rclavicle -1.04859e-014 2.54444e-014
rhumerus -34.3862 -11.6234 -73.9853
rradius 41.7501
rwrist 5.75594
rhand -10.6814 11.3099
rfingers 7.12502
rthumb 15.3273 -18.1021
lclavicle -1.04859e-014 2.54444e-014
lhumerus -39.3902 10.4844 72.9466
lradius 44.8654
lwrist -4.91899
lhand -18.5376 20.9753
lfingers 7.12502
lthumb 7.75143 50.8132
rfemur -8.8396 3.70577 21.9199
rtibia 19.3528
rfoot -7.77064 -6.41284
rtoes 13.8567
lfemur -9.01071 -3.61862 -19.4973
ltibia 20.7721
lfoot -9.6147 10.8377
ltoes -2.75882
396
root 0.735719 17.8089 6.75327 5.71736 -4.67661 -0.574547
lowerback 7.25168 -0.48452 -2.59064
upperback -1.82047 -0.759618 2.35155
thorax -5.91216 -0.236608 4.01463
lowerneck -18.9531 -6.43253 -10.4847
upperneck 20.5338 -7.53942 6.87153
head 10.3779 -3.51406 3.05464
rclavicle -2.55935e-014 -3.97569e-016
rhumerus -34.3118 -11.9332 -73.8844
rradius 41.0631
rwrist 6.1476
rhand -10.4908 11.7241
rfingers 7.12502
rthumb 15.511 -17.6737
lclavicle -2.55935e-014 -3.97569e-016
lhumerus -39.2052 10.7534 73.0371
lradius 44.723
lwrist -5.03172
lhand -19.1066 15.6007
lfingers 7.12502
lthumb 7.20223 45.4581
rfemur -8.74333 3.69717 21.8166
rtibia 19.2363
rfoot -7.91547 -6.54611
rtoes 16.1465
lfemur -8.98402 -3.64028 -19.6033
ltibia 20.806
lfoot -9.78162 10.8274
ltoes -2.50396
397
root 0.737564 17.8013 6.76322 5.72768 -4.59608 -0.572222
lowerback 7.21119 -0.488786 -2.53606
upperback -1.81086 -0.758816 2.36375
thorax -5.87936 -0.238795 3.99535
lowerneck -19.0301 -6.37583 -10.4147
upperneck 20.5518 -7.44782 6.77195
head 10.3824 -3.47635 3.02069
rclavicle -3.8763e-014 -2.38542e-015
rhumerus -34.3486 -12.1714 -73.7504
rradius 40.4627
rwrist 6.35672
rhand -10.4994 12.5775
rfingers 7.12502
rthumb 15.5027 -16.821
lclavicle -3.8763e-014 -2.38542e-015
lhumerus -39.0835 11.1548 73.0839
lradius 44.5191
lwrist -5.11057
lhand -19.0587 15.0678
lfingers 7.12502
lthumb 7.24849 44.9237
rfemur -8.56434 3.51054 21.8339
rtibia 19.0274
rfoot -7.65297 -6.40797
rtoes 13.1601
lfemur -9.03814 -3.6614 -19.6073
ltibia 20.93
lfoot -9.99048 10.8198
ltoes -2.13033
